<?xml version="1.0" encoding="UTF-8"?>
<svg width="1245px" height="331px" viewBox="0 0 1245 331" version="1.1" xmlns="http://www.w3.org/2000/svg" xmlns:xlink="http://www.w3.org/1999/xlink">
    <!-- Generator: Sketch 49.1 (51147) - http://www.bohemiancoding.com/sketch -->
    <title>512 Icon Copy 3</title>
    <desc>Created with Sketch.</desc>
    <defs></defs>
    <g id="512-Icon-Copy-3" stroke="none" stroke-width="1" fill="none" fill-rule="evenodd">
        <g id="logo/logo-white-with-name" transform="translate(-1.000000, -26.000000)" fill="#FFFFFF">
            <g id="logo/logo-white" transform="translate(0.999054, 26.000099)">
                <path d="M104.299866,0.572347154 L272.07942,0.353354907 C279.234053,0.344016409 285.848713,4.15723879 289.426033,10.3533379 L373.073967,155.23581 C376.651287,161.431909 376.646304,169.066984 373.0609,175.258409 L288.98147,320.450269 C285.410086,326.617483 278.82679,330.418351 271.700134,330.427653 L103.92058,330.646645 C96.7659471,330.655984 90.1512866,326.842761 86.5739671,320.646662 L2.92603286,175.76419 C-0.651286615,169.568091 -0.646303822,161.933016 2.93909998,155.741591 L87.0185298,10.5497313 C90.5899137,4.38251683 97.1732097,0.581649137 104.299866,0.572347154 Z M187.5,52.8403614 C183.910149,52.8403614 181,55.7505106 181,59.3403614 L181,108.153614 C181,111.743465 183.910149,114.653614 187.5,114.653614 C191.089851,114.653614 194,111.743465 194,108.153614 L194,59.3403614 C194,55.7505106 191.089851,52.8403614 187.5,52.8403614 Z M286.032719,109.569757 C284.187176,106.382811 280.099733,105.290882 276.903159,107.130866 L234.940814,131.284865 C231.74424,133.124849 230.649012,137.199981 232.494555,140.386927 C234.340098,143.573873 238.427542,144.665801 241.624116,142.825817 L283.586461,118.671819 C286.783035,116.831835 287.878262,112.756703 286.032719,109.569757 Z M286.032719,222.427231 C287.878262,219.240285 286.783035,215.165153 283.586461,213.325169 L241.624116,189.171171 C238.427542,187.331187 234.340098,188.423115 232.494555,191.610061 C230.649012,194.797007 231.74424,198.872139 234.940814,200.712123 L276.903159,224.866122 C280.099733,226.706106 284.187176,225.614177 286.032719,222.427231 Z M188,278.855969 C191.691086,278.855969 194.683302,275.872765 194.683302,272.192797 L194.683302,223.8848 C194.683302,220.204832 191.691086,217.221628 188,217.221628 C184.308914,217.221628 181.316698,220.204832 181.316698,223.8848 L181.316698,272.192797 C181.316698,275.872765 184.308914,278.855969 188,278.855969 Z M89.9672806,109.569757 C88.1217376,112.756703 89.2169648,116.831835 92.413539,118.671819 L134.375884,142.825817 C137.572458,144.665801 141.659902,143.573873 143.505445,140.386927 C145.350988,137.199981 144.25576,133.124849 141.059186,131.284865 L99.0968414,107.130866 C95.9002672,105.290882 91.8128236,106.382811 89.9672806,109.569757 Z M89.9672806,222.427231 C91.8128236,225.614177 95.9002672,226.706106 99.0968414,224.866122 L141.059186,200.712123 C144.25576,198.872139 145.350988,194.797007 143.505445,191.610061 C141.659902,188.423115 137.572458,187.331187 134.375884,189.171171 L92.413539,213.325169 C89.2169648,215.165153 88.1217376,219.240285 89.9672806,222.427231 Z" id="Combined-Shape"></path>
            </g>
            <path d="M624.894,275.529 C626.026006,277.227008 626.592,278.830659 626.592,280.34 C626.592,282.415344 625.790175,284.160493 624.1865,285.5755 C622.582825,286.990507 620.743344,287.698 618.668,287.698 C615.460651,287.698 612.913676,286.188682 611.027,283.17 L572.822,222.042 C567.350639,213.36329 561.737862,207.420349 555.9835,204.213 C550.229138,201.005651 542.258051,199.402 532.07,199.402 L493.299,199.402 L493.299,278.359 C493.299,281.189014 492.497175,283.405825 490.8935,285.0095 C489.289825,286.613175 487.167347,287.415 484.526,287.415 C481.884653,287.415 479.762175,286.613175 478.1585,285.0095 C476.554825,283.405825 475.753,281.189014 475.753,278.359 L475.753,95.258 C475.753,92.8053211 476.649158,90.7300085 478.4415,89.032 C480.233842,87.3339915 482.450653,86.485 485.092,86.485 L555.559,86.485 C576.501105,86.485 592.631943,91.2487857 603.952,100.7765 C615.272057,110.304214 620.932,124.218242 620.932,142.519 C620.932,158.555747 616.121048,171.290619 606.499,180.724 C596.876952,190.15738 583.293088,195.628659 565.747,197.138 C570.275023,198.647341 574.425648,201.147149 578.199,204.6375 C581.972352,208.127851 585.83998,212.985969 589.802,219.212 L624.894,275.529 Z M554.427,184.403 C587.255164,184.403 603.669,170.347474 603.669,142.236 C603.669,128.463264 599.612707,118.2282 591.5,111.5305 C583.387293,104.8328 571.02975,101.484 554.427,101.484 L493.016,101.484 L493.016,184.403 L554.427,184.403 Z M712.936352,145.349 C729.539102,145.349 741.943811,149.68829 750.150852,158.367 C758.357893,167.04571 762.461352,180.157912 762.461352,197.704 L762.461352,278.359 C762.461352,281.000347 761.706693,283.122825 760.197352,284.7265 C758.688011,286.330175 756.612699,287.132 753.971352,287.132 C751.330006,287.132 749.254693,286.330175 747.745352,284.7265 C746.236011,283.122825 745.481352,281.000347 745.481352,278.359 L745.481352,261.379 C741.519333,269.869042 735.765057,276.425144 728.218352,281.0475 C720.671648,285.669856 711.993068,287.981 702.182352,287.981 C693.314975,287.981 685.202389,286.188685 677.844352,282.604 C670.486316,279.019315 664.684874,274.019699 660.439852,267.605 C656.194831,261.190301 654.072352,254.115372 654.072352,246.38 C654.072352,236.191949 656.713659,228.268028 661.996352,222.608 C667.279045,216.947972 676.051958,212.891679 688.315352,210.439 C700.578747,207.986321 717.65291,206.76 739.538352,206.76 L745.481352,206.76 L745.481352,196.289 C745.481352,183.836938 742.934378,174.733862 737.840352,168.9795 C732.746327,163.225138 724.728074,160.348 713.785352,160.348 C699.823949,160.348 686.523082,164.026963 673.882352,171.385 C673.31635,171.762335 671.854198,172.752825 669.495852,174.3565 C667.137507,175.960175 665.109361,176.762 663.411352,176.762 C661.524676,176.762 659.968192,176.054507 658.741852,174.6395 C657.515513,173.224493 656.902352,171.479344 656.902352,169.404 C656.902352,165.253313 660.203986,161.19702 666.807352,157.235 C673.410719,153.461648 680.768645,150.537344 688.881352,148.462 C696.99406,146.386656 705.012313,145.349 712.936352,145.349 Z M703.597352,272.982 C715.860747,272.982 725.907147,268.831375 733.736852,260.53 C741.566558,252.228625 745.481352,241.663397 745.481352,228.834 L745.481352,219.495 L740.104352,219.495 C721.992262,219.495 708.1254,220.249659 698.503352,221.759 C688.881304,223.268341 682.089372,225.862482 678.127352,229.5415 C674.165333,233.220518 672.184352,238.550298 672.184352,245.531 C672.184352,253.45504 675.202989,260.011141 681.240352,265.1995 C687.277716,270.387859 694.729975,272.982 703.597352,272.982 Z M809.185705,287.415 C806.544358,287.415 804.421879,286.660341 802.818205,285.151 C801.21453,283.641659 800.412705,281.472014 800.412705,278.642 L800.412705,154.688 C800.412705,151.857986 801.21453,149.688341 802.818205,148.179 C804.421879,146.669659 806.544358,145.915 809.185705,145.915 C811.827051,145.915 813.902364,146.669659 815.411705,148.179 C816.921046,149.688341 817.675705,151.857986 817.675705,154.688 L817.675705,278.642 C817.675705,281.472014 816.921046,283.641659 815.411705,285.151 C813.902364,286.660341 811.827051,287.415 809.185705,287.415 Z M809.185705,113.936 C805.412353,113.936 802.34655,112.804011 799.988205,110.54 C797.62986,108.275989 796.450705,105.351685 796.450705,101.767 C796.450705,97.9936478 797.62986,94.9750113 799.988205,92.711 C802.34655,90.4469887 805.412353,89.315 809.185705,89.315 C812.959057,89.315 816.02486,90.4469887 818.383205,92.711 C820.74155,94.9750113 821.920705,97.9936478 821.920705,101.767 C821.920705,105.351685 820.74155,108.275989 818.383205,110.54 C816.02486,112.804011 812.959057,113.936 809.185705,113.936 Z M900.624057,287.981 C892.700018,287.981 884.917595,286.896178 877.276557,284.7265 C869.635519,282.556822 862.890753,279.585352 857.042057,275.812 C853.457373,273.359321 850.957564,271.236842 849.542557,269.4445 C848.12755,267.652158 847.420057,265.624011 847.420057,263.36 C847.420057,261.473324 848.033218,259.869673 849.259557,258.549 C850.485897,257.228327 851.948049,256.568 853.646057,256.568 C855.344066,256.568 858.26837,257.982986 862.419057,260.813 C867.890418,264.397685 873.503195,267.321989 879.257557,269.586 C885.011919,271.850011 892.228347,272.982 900.907057,272.982 C912.038446,272.982 920.717026,270.953854 926.943057,266.8975 C933.169088,262.841146 936.282057,257.039704 936.282057,249.493 C936.282057,244.964977 935.150068,241.238848 932.886057,238.3145 C930.622046,235.390152 926.84875,232.843178 921.566057,230.6735 C916.283364,228.503822 908.736773,226.381344 898.926057,224.306 C882.13464,220.532648 870.201593,215.67453 863.126557,209.7315 C856.051522,203.78847 852.514057,195.817383 852.514057,185.818 C852.514057,173.743273 857.230677,163.979871 866.664057,156.5275 C876.097438,149.075129 888.360648,145.349 903.454057,145.349 C910.812094,145.349 917.839857,146.292324 924.537557,148.179 C931.235257,150.065676 937.036699,152.801315 941.942057,156.386 C948.545423,160.914023 951.847057,165.347645 951.847057,169.687 C951.847057,171.573676 951.233897,173.224493 950.007557,174.6395 C948.781218,176.054507 947.319066,176.762 945.621057,176.762 C943.734381,176.762 940.810077,175.252682 936.848057,172.234 C931.754032,168.649315 926.707249,165.772178 921.707557,163.6025 C916.707865,161.432822 910.340429,160.348 902.605057,160.348 C892.794341,160.348 884.964753,162.564811 879.116057,166.9985 C873.267361,171.432189 870.343057,177.422296 870.343057,184.969 C870.343057,189.308355 871.333547,192.892986 873.314557,195.723 C875.295567,198.553014 878.691533,201.052822 883.502557,203.2225 C888.313581,205.392178 895.247012,207.514656 904.303057,209.59 C917.321122,212.608682 927.320356,215.815983 934.301057,219.212 C941.281759,222.608017 946.281375,226.66431 949.300057,231.381 C952.318739,236.09769 953.828057,242.134963 953.828057,249.493 C953.828057,261.001724 948.969939,270.293465 939.253557,277.3685 C929.537175,284.443535 916.660804,287.981 900.624057,287.981 Z M1039.04041,287.981 C1026.39968,287.981 1015.31562,285.056696 1005.78791,279.208 C996.260195,273.359304 988.855103,265.058054 983.57241,254.304 C978.289716,243.549946 975.64841,231.003738 975.64841,216.665 C975.64841,202.326262 978.289716,189.780054 983.57241,179.026 C988.855103,168.271946 996.260195,159.970696 1005.78791,154.122 C1015.31562,148.273304 1026.39968,145.349 1039.04041,145.349 C1051.49247,145.349 1062.52936,148.273304 1072.15141,154.122 C1081.77346,159.970696 1089.17855,168.271946 1094.36691,179.026 C1099.55527,189.780054 1102.14941,202.326262 1102.14941,216.665 C1102.14941,231.003738 1099.55527,243.549946 1094.36691,254.304 C1089.17855,265.058054 1081.77346,273.359304 1072.15141,279.208 C1062.52936,285.056696 1051.49247,287.981 1039.04041,287.981 Z M1038.75741,272.699 C1053.28482,272.699 1064.51037,267.888048 1072.43441,258.266 C1080.35845,248.643952 1084.32041,234.777091 1084.32041,216.665 C1084.32041,198.930245 1080.31128,185.11055 1072.29291,175.2055 C1064.27454,165.30045 1053.19048,160.348 1039.04041,160.348 C1024.70167,160.348 1013.57045,165.30045 1005.64641,175.2055 C997.72237,185.11055 993.76041,198.930245 993.76041,216.665 C993.76041,234.777091 997.628038,248.643952 1005.36341,258.266 C1013.09878,267.888048 1024.23,272.699 1038.75741,272.699 Z M1195.85176,145.349 C1228.86859,145.349 1245.37676,163.083489 1245.37676,198.553 L1245.37676,278.642 C1245.37676,281.283347 1244.6221,283.405825 1243.11276,285.0095 C1241.60342,286.613175 1239.52811,287.415 1236.88676,287.415 C1234.24542,287.415 1232.12294,286.613175 1230.51926,285.0095 C1228.91559,283.405825 1228.11376,281.283347 1228.11376,278.642 L1228.11376,199.685 C1228.11376,186.100932 1225.37812,176.196031 1219.90676,169.97 C1214.4354,163.743969 1205.75682,160.631 1193.87076,160.631 C1180.28669,160.631 1169.3913,164.781625 1161.18426,173.083 C1152.97722,181.384375 1148.87376,192.515597 1148.87376,206.477 L1148.87376,278.642 C1148.87376,281.283347 1148.1191,283.405825 1146.60976,285.0095 C1145.10042,286.613175 1143.02511,287.415 1140.38376,287.415 C1137.74242,287.415 1135.61994,286.613175 1134.01626,285.0095 C1132.41259,283.405825 1131.61076,281.283347 1131.61076,278.642 L1131.61076,154.688 C1131.61076,152.046653 1132.41259,149.924175 1134.01626,148.3205 C1135.61994,146.716825 1137.74242,145.915 1140.38376,145.915 C1142.83644,145.915 1144.81742,146.669659 1146.32676,148.179 C1147.8361,149.688341 1148.59076,151.763653 1148.59076,154.405 L1148.59076,172.234 C1152.93012,163.55529 1159.20322,156.904856 1167.41026,152.2825 C1175.6173,147.660144 1185.09771,145.349 1195.85176,145.349 Z" id="Raison"></path>
        </g>
    </g>
</svg>