<?xml version="1.0" encoding="UTF-8"?>
<svg width="1572px" height="512px" viewBox="0 0 1572 512" version="1.1" xmlns="http://www.w3.org/2000/svg" xmlns:xlink="http://www.w3.org/1999/xlink">
    <!-- Generator: Sketch 48.2 (47327) - http://www.bohemiancoding.com/sketch -->
    <title>512 Icon Copy</title>
    <desc>Created with Sketch.</desc>
    <defs>
        <linearGradient x1="25%" y1="6.69872981%" x2="75%" y2="93.3012702%" id="linearGradient-1">
            <stop stop-color="#141E30" offset="0%"></stop>
            <stop stop-color="#243B55" offset="100%"></stop>
        </linearGradient>
    </defs>
    <g id="Page-1" stroke="none" stroke-width="1" fill="none" fill-rule="evenodd">
        <g id="512-Icon-Copy">
            <path d="M171.996099,91.0000991 L339.996539,91.0043496 C347.14167,91.0045303 353.743975,94.8164846 357.316541,101.00435 L441.321454,246.505127 C444.894019,252.692992 444.894116,260.316733 441.321707,266.504689 L357.325168,411.999463 C353.752488,418.187888 347.149574,422.000082 340.003901,421.999901 L172.003461,421.99565 C164.85833,421.99547 158.256025,418.183515 154.683459,411.99565 L70.6785461,266.494873 C67.1059806,260.307008 67.1058841,252.683267 70.6782931,246.495311 L154.674832,101.000537 C158.247512,94.8121122 164.850426,90.9999183 171.996099,91.0000991 Z M255.499759,143.438967 C251.908179,143.438967 248.996628,146.350518 248.996628,149.942098 L248.996628,198.969323 C248.996628,202.560903 251.908179,205.472454 255.499759,205.472454 C259.091339,205.472454 262.00289,202.560903 262.00289,198.969323 L262.00289,149.942098 C262.00289,146.350518 259.091339,143.438967 255.499759,143.438967 Z M354.079938,200.370483 C352.233506,197.172182 348.144093,196.076363 344.945979,197.922903 L302.963423,222.16296 C299.765309,224.0095 298.669555,228.099151 300.515986,231.297452 C302.362418,234.495752 306.451831,235.591571 309.649945,233.745031 L351.632501,209.504975 C354.830615,207.658435 355.926369,203.568784 354.079938,200.370483 Z M354.079938,313.630057 C355.926369,310.431756 354.830615,306.342105 351.632501,304.495565 L309.649945,280.255509 C306.451831,278.408969 302.362418,279.504788 300.515986,282.703089 C298.669555,285.901389 299.765309,289.991041 302.963423,291.83758 L344.945979,316.077637 C348.144093,317.924177 352.233506,316.828358 354.079938,313.630057 Z M256,370.259844 C259.692864,370.259844 262.686521,367.266012 262.686521,363.572932 L262.686521,315.092819 C262.686521,311.39974 259.692864,308.405907 256,308.405907 C252.307136,308.405907 249.313479,311.39974 249.313479,315.092819 L249.313479,363.572932 C249.313479,367.266012 252.307136,370.259844 256,370.259844 Z M157.920062,200.370483 C156.073631,203.568784 157.169385,207.658435 160.367499,209.504975 L202.350055,233.745031 C205.548169,235.591571 209.637582,234.495752 211.484014,231.297452 C213.330445,228.099151 212.234691,224.0095 209.036577,222.16296 L167.054021,197.922903 C163.855907,196.076363 159.766494,197.172182 157.920062,200.370483 Z M157.920062,313.630057 C159.766494,316.828358 163.855907,317.924177 167.054021,316.077637 L209.036577,291.83758 C212.234691,289.991041 213.330445,285.901389 211.484014,282.703089 C209.637582,279.504788 205.548169,278.408969 202.350055,280.255509 L160.367499,304.495565 C157.169385,306.342105 156.073631,310.431756 157.920062,313.630057 Z" id="Combined-Shape" fill="url(#linearGradient-1)"></path>
            <text id="Raison" font-family="Nunito-Light, Nunito" font-size="283" font-weight="300" letter-spacing="-7.04564762" fill="#21354D">
                <tspan x="517" y="351">Raison</tspan>
            </text>
        </g>
    </g>
</svg>