<?xml version="1.0" encoding="UTF-8"?>
<svg width="1245px" height="331px" viewBox="0 0 1245 331" version="1.1" xmlns="http://www.w3.org/2000/svg" xmlns:xlink="http://www.w3.org/1999/xlink">
    <!-- Generator: Sketch 49.1 (51147) - http://www.bohemiancoding.com/sketch -->
    <title>512 Icon Copy</title>
    <desc>Created with Sketch.</desc>
    <defs>
        <linearGradient x1="25%" y1="6.69872981%" x2="75%" y2="93.3012702%" id="linearGradient-1">
            <stop stop-color="#141E30" offset="0%"></stop>
            <stop stop-color="#243B55" offset="100%"></stop>
        </linearGradient>
    </defs>
    <g id="512-Icon-Copy" stroke="none" stroke-width="1" fill="none" fill-rule="evenodd">
        <g id="Logo-color-with-name" transform="translate(-1.000000, 0.000000)">
            <g id="Logo-color" transform="translate(0.999054, 0.000099)" fill="url(#linearGradient-1)">
                <path d="M104.300804,0.572318867 L272.081083,0.352917302 C279.235733,0.343561367 285.850416,4.15678606 289.427744,10.3529002 L373.075589,155.235217 C376.652917,161.431332 376.647925,169.066427 373.062497,175.257858 L288.982351,320.450141 C285.410969,326.617317 278.827709,330.418164 271.701088,330.427483 L103.920809,330.646885 C96.7661588,330.656241 90.1514757,326.843016 86.5741476,320.646902 L2.92630273,175.764585 C-0.651025442,169.56847 -0.646033344,161.933374 2.93939424,155.741944 L87.0195409,10.5496608 C90.5909224,4.38248514 97.1741825,0.58163815 104.300804,0.572318867 Z M187.500943,52.8403298 C183.911074,52.8403298 181.000911,55.7504936 181.000911,59.3403625 L181.000911,108.153513 C181.000911,111.743382 183.911074,114.653546 187.500943,114.653546 C191.090812,114.653546 194.000976,111.743382 194.000976,108.153513 L194.000976,59.3403625 C194.000976,55.7504936 191.090812,52.8403298 187.500943,52.8403298 Z M286.034158,109.569691 C284.188606,106.382747 280.101142,105.290819 276.904552,107.130802 L234.941996,131.284786 C231.745405,133.124769 230.650173,137.199899 232.495725,140.386843 C234.341277,143.573787 238.428741,144.665715 241.625332,142.825732 L283.587888,118.671748 C286.784478,116.831765 287.879711,112.756635 286.034158,109.569691 Z M286.034158,222.427098 C287.879711,219.240154 286.784478,215.165025 283.587888,213.325042 L241.625332,189.171058 C238.428741,187.331075 234.341277,188.423002 232.495725,191.609946 C230.650173,194.796891 231.745405,198.87202 234.941996,200.712003 L276.904552,224.865987 C280.101142,226.70597 284.188606,225.614042 286.034158,222.427098 Z M188.000946,278.855802 C191.69205,278.855802 194.684282,275.8726 194.684282,272.192634 L194.684282,223.884666 C194.684282,220.2047 191.69205,217.221498 188.000946,217.221498 C184.309841,217.221498 181.31761,220.2047 181.31761,223.884666 L181.31761,272.192634 C181.31761,275.8726 184.309841,278.855802 188.000946,278.855802 Z M89.9677332,109.569691 C88.1221809,112.756635 89.2174137,116.831765 92.414004,118.671748 L134.37656,142.825732 C137.57315,144.665715 141.660614,143.573787 143.506167,140.386843 C145.351719,137.199899 144.256486,133.124769 141.059896,131.284786 L99.09734,107.130802 C95.9007497,105.290819 91.8132855,106.382747 89.9677332,109.569691 Z M89.9677332,222.427098 C91.8132855,225.614042 95.9007497,226.70597 99.09734,224.865987 L141.059896,200.712003 C144.256486,198.87202 145.351719,194.796891 143.506167,191.609946 C141.660614,188.423002 137.57315,187.331075 134.37656,189.171058 L92.414004,213.325042 C89.2174137,215.165025 88.1221809,219.240154 89.9677332,222.427098 Z" id="Combined-Shape"></path>
            </g>
            <path d="M624.894,249.529 C626.026006,251.227008 626.592,252.830659 626.592,254.34 C626.592,256.415344 625.790175,258.160493 624.1865,259.5755 C622.582825,260.990507 620.743344,261.698 618.668,261.698 C615.460651,261.698 612.913676,260.188682 611.027,257.17 L572.822,196.042 C567.350639,187.36329 561.737862,181.420349 555.9835,178.213 C550.229138,175.005651 542.258051,173.402 532.07,173.402 L493.299,173.402 L493.299,252.359 C493.299,255.189014 492.497175,257.405825 490.8935,259.0095 C489.289825,260.613175 487.167347,261.415 484.526,261.415 C481.884653,261.415 479.762175,260.613175 478.1585,259.0095 C476.554825,257.405825 475.753,255.189014 475.753,252.359 L475.753,69.258 C475.753,66.8053211 476.649158,64.7300085 478.4415,63.032 C480.233842,61.3339915 482.450653,60.485 485.092,60.485 L555.559,60.485 C576.501105,60.485 592.631943,65.2487857 603.952,74.7765 C615.272057,84.3042143 620.932,98.2182418 620.932,116.519 C620.932,132.555747 616.121048,145.29062 606.499,154.724 C596.876952,164.157381 583.293088,169.628659 565.747,171.138 C570.275023,172.647341 574.425648,175.147149 578.199,178.6375 C581.972352,182.127851 585.83998,186.985969 589.802,193.212 L624.894,249.529 Z M554.427,158.403 C587.255164,158.403 603.669,144.347474 603.669,116.236 C603.669,102.463264 599.612707,92.2282002 591.5,85.5305 C583.387293,78.8327998 571.02975,75.484 554.427,75.484 L493.016,75.484 L493.016,158.403 L554.427,158.403 Z M712.936352,119.349 C729.539102,119.349 741.943811,123.68829 750.150852,132.367 C758.357893,141.04571 762.461352,154.157912 762.461352,171.704 L762.461352,252.359 C762.461352,255.000347 761.706693,257.122825 760.197352,258.7265 C758.688011,260.330175 756.612699,261.132 753.971352,261.132 C751.330006,261.132 749.254693,260.330175 747.745352,258.7265 C746.236011,257.122825 745.481352,255.000347 745.481352,252.359 L745.481352,235.379 C741.519333,243.869042 735.765057,250.425144 728.218352,255.0475 C720.671648,259.669856 711.993068,261.981 702.182352,261.981 C693.314975,261.981 685.202389,260.188685 677.844352,256.604 C670.486316,253.019315 664.684874,248.019699 660.439852,241.605 C656.194831,235.190301 654.072352,228.115372 654.072352,220.38 C654.072352,210.191949 656.713659,202.268028 661.996352,196.608 C667.279045,190.947972 676.051958,186.891679 688.315352,184.439 C700.578747,181.986321 717.65291,180.76 739.538352,180.76 L745.481352,180.76 L745.481352,170.289 C745.481352,157.836938 742.934378,148.733862 737.840352,142.9795 C732.746327,137.225138 724.728074,134.348 713.785352,134.348 C699.823949,134.348 686.523082,138.026963 673.882352,145.385 C673.31635,145.762335 671.854198,146.752825 669.495852,148.3565 C667.137507,149.960175 665.109361,150.762 663.411352,150.762 C661.524676,150.762 659.968192,150.054507 658.741852,148.6395 C657.515513,147.224493 656.902352,145.479344 656.902352,143.404 C656.902352,139.253313 660.203986,135.19702 666.807352,131.235 C673.410719,127.461648 680.768645,124.537344 688.881352,122.462 C696.99406,120.386656 705.012313,119.349 712.936352,119.349 Z M703.597352,246.982 C715.860747,246.982 725.907147,242.831375 733.736852,234.53 C741.566558,226.228625 745.481352,215.663397 745.481352,202.834 L745.481352,193.495 L740.104352,193.495 C721.992262,193.495 708.1254,194.249659 698.503352,195.759 C688.881304,197.268341 682.089372,199.862482 678.127352,203.5415 C674.165333,207.220518 672.184352,212.550298 672.184352,219.531 C672.184352,227.45504 675.202989,234.011141 681.240352,239.1995 C687.277716,244.387859 694.729975,246.982 703.597352,246.982 Z M809.185705,261.415 C806.544358,261.415 804.421879,260.660341 802.818205,259.151 C801.21453,257.641659 800.412705,255.472014 800.412705,252.642 L800.412705,128.688 C800.412705,125.857986 801.21453,123.688341 802.818205,122.179 C804.421879,120.669659 806.544358,119.915 809.185705,119.915 C811.827051,119.915 813.902364,120.669659 815.411705,122.179 C816.921046,123.688341 817.675705,125.857986 817.675705,128.688 L817.675705,252.642 C817.675705,255.472014 816.921046,257.641659 815.411705,259.151 C813.902364,260.660341 811.827051,261.415 809.185705,261.415 Z M809.185705,87.936 C805.412353,87.936 802.34655,86.8040113 799.988205,84.54 C797.62986,82.2759887 796.450705,79.3516846 796.450705,75.767 C796.450705,71.9936478 797.62986,68.9750113 799.988205,66.711 C802.34655,64.4469887 805.412353,63.315 809.185705,63.315 C812.959057,63.315 816.02486,64.4469887 818.383205,66.711 C820.74155,68.9750113 821.920705,71.9936478 821.920705,75.767 C821.920705,79.3516846 820.74155,82.2759887 818.383205,84.54 C816.02486,86.8040113 812.959057,87.936 809.185705,87.936 Z M900.624057,261.981 C892.700018,261.981 884.917595,260.896178 877.276557,258.7265 C869.635519,256.556822 862.890753,253.585352 857.042057,249.812 C853.457373,247.359321 850.957564,245.236842 849.542557,243.4445 C848.12755,241.652158 847.420057,239.624011 847.420057,237.36 C847.420057,235.473324 848.033218,233.869673 849.259557,232.549 C850.485897,231.228327 851.948049,230.568 853.646057,230.568 C855.344066,230.568 858.26837,231.982986 862.419057,234.813 C867.890418,238.397685 873.503195,241.321989 879.257557,243.586 C885.011919,245.850011 892.228347,246.982 900.907057,246.982 C912.038446,246.982 920.717026,244.953854 926.943057,240.8975 C933.169088,236.841146 936.282057,231.039704 936.282057,223.493 C936.282057,218.964977 935.150068,215.238848 932.886057,212.3145 C930.622046,209.390152 926.84875,206.843178 921.566057,204.6735 C916.283364,202.503822 908.736773,200.381344 898.926057,198.306 C882.13464,194.532648 870.201593,189.67453 863.126557,183.7315 C856.051522,177.78847 852.514057,169.817383 852.514057,159.818 C852.514057,147.743273 857.230677,137.979871 866.664057,130.5275 C876.097438,123.075129 888.360648,119.349 903.454057,119.349 C910.812094,119.349 917.839857,120.292324 924.537557,122.179 C931.235257,124.065676 937.036699,126.801315 941.942057,130.386 C948.545423,134.914023 951.847057,139.347645 951.847057,143.687 C951.847057,145.573676 951.233897,147.224493 950.007557,148.6395 C948.781218,150.054507 947.319066,150.762 945.621057,150.762 C943.734381,150.762 940.810077,149.252682 936.848057,146.234 C931.754032,142.649315 926.707249,139.772178 921.707557,137.6025 C916.707865,135.432822 910.340429,134.348 902.605057,134.348 C892.794341,134.348 884.964753,136.564811 879.116057,140.9985 C873.267361,145.432189 870.343057,151.422296 870.343057,158.969 C870.343057,163.308355 871.333547,166.892986 873.314557,169.723 C875.295567,172.553014 878.691533,175.052822 883.502557,177.2225 C888.313581,179.392178 895.247012,181.514656 904.303057,183.59 C917.321122,186.608682 927.320356,189.815983 934.301057,193.212 C941.281759,196.608017 946.281375,200.66431 949.300057,205.381 C952.318739,210.09769 953.828057,216.134963 953.828057,223.493 C953.828057,235.001724 948.969939,244.293465 939.253557,251.3685 C929.537175,258.443535 916.660804,261.981 900.624057,261.981 Z M1039.04041,261.981 C1026.39968,261.981 1015.31562,259.056696 1005.78791,253.208 C996.260195,247.359304 988.855103,239.058054 983.57241,228.304 C978.289716,217.549946 975.64841,205.003738 975.64841,190.665 C975.64841,176.326262 978.289716,163.780054 983.57241,153.026 C988.855103,142.271946 996.260195,133.970696 1005.78791,128.122 C1015.31562,122.273304 1026.39968,119.349 1039.04041,119.349 C1051.49247,119.349 1062.52936,122.273304 1072.15141,128.122 C1081.77346,133.970696 1089.17855,142.271946 1094.36691,153.026 C1099.55527,163.780054 1102.14941,176.326262 1102.14941,190.665 C1102.14941,205.003738 1099.55527,217.549946 1094.36691,228.304 C1089.17855,239.058054 1081.77346,247.359304 1072.15141,253.208 C1062.52936,259.056696 1051.49247,261.981 1039.04041,261.981 Z M1038.75741,246.699 C1053.28482,246.699 1064.51037,241.888048 1072.43441,232.266 C1080.35845,222.643952 1084.32041,208.777091 1084.32041,190.665 C1084.32041,172.930245 1080.31128,159.11055 1072.29291,149.2055 C1064.27454,139.30045 1053.19048,134.348 1039.04041,134.348 C1024.70167,134.348 1013.57045,139.30045 1005.64641,149.2055 C997.72237,159.11055 993.76041,172.930245 993.76041,190.665 C993.76041,208.777091 997.628038,222.643952 1005.36341,232.266 C1013.09878,241.888048 1024.23,246.699 1038.75741,246.699 Z M1195.85176,119.349 C1228.86859,119.349 1245.37676,137.083489 1245.37676,172.553 L1245.37676,252.642 C1245.37676,255.283347 1244.6221,257.405825 1243.11276,259.0095 C1241.60342,260.613175 1239.52811,261.415 1236.88676,261.415 C1234.24542,261.415 1232.12294,260.613175 1230.51926,259.0095 C1228.91559,257.405825 1228.11376,255.283347 1228.11376,252.642 L1228.11376,173.685 C1228.11376,160.100932 1225.37812,150.196031 1219.90676,143.97 C1214.4354,137.743969 1205.75682,134.631 1193.87076,134.631 C1180.28669,134.631 1169.3913,138.781625 1161.18426,147.083 C1152.97722,155.384375 1148.87376,166.515597 1148.87376,180.477 L1148.87376,252.642 C1148.87376,255.283347 1148.1191,257.405825 1146.60976,259.0095 C1145.10042,260.613175 1143.02511,261.415 1140.38376,261.415 C1137.74242,261.415 1135.61994,260.613175 1134.01626,259.0095 C1132.41259,257.405825 1131.61076,255.283347 1131.61076,252.642 L1131.61076,128.688 C1131.61076,126.046653 1132.41259,123.924175 1134.01626,122.3205 C1135.61994,120.716825 1137.74242,119.915 1140.38376,119.915 C1142.83644,119.915 1144.81742,120.669659 1146.32676,122.179 C1147.8361,123.688341 1148.59076,125.763653 1148.59076,128.405 L1148.59076,146.234 C1152.93012,137.55529 1159.20322,130.904856 1167.41026,126.2825 C1175.6173,121.660144 1185.09771,119.349 1195.85176,119.349 Z" id="Raison" fill="#21354D"></path>
        </g>
    </g>
</svg>